<svg id="cow" xmlns="http://www.w3.org/2000/svg" width="45.588" height="32.762" viewBox="0 0 45.588 32.762">
  <g id="Grupo_6" data-name="Grupo 6" transform="translate(6.078 4.649)">
    <g id="Grupo_5" data-name="Grupo 5" transform="translate(0 0)">
      <rect id="Retângulo_13" data-name="Retângulo 13" width="1.52" height="1.52"/>
    </g>
  </g>
  <g id="Grupo_8" data-name="Grupo 8" transform="translate(15.956 0.85)">
    <g id="Grupo_7" data-name="Grupo 7" transform="translate(0 0)">
      <path id="Caminho_6" data-name="Caminho 6" d="M208.777,95.538a.752.752,0,0,0,.055-.285V86.9a5.325,5.325,0,0,0-5.319-5.319H179.2V83.1h24.314a3.8,3.8,0,0,1,3.8,3.8v8.21L206.3,97.62a3.781,3.781,0,0,0,0,2.848l.971,2.417-2.8,9.084h-1.581l1.371-8.234a.759.759,0,0,0-.212-.662l-3.982-3.982a3.823,3.823,0,0,1-1.114-2.691V95.253h-1.52V96.4a5.351,5.351,0,0,0,1.56,3.766l3.7,3.7-1.455,8.732a.761.761,0,0,0,.75.885h3.039a.76.76,0,0,0,.726-.536l3.039-9.877a.754.754,0,0,0-.021-.507L207.705,99.9a2.272,2.272,0,0,1,0-1.71Z" transform="translate(-179.2 -81.577)"/>
    </g>
  </g>
  <g id="Grupo_10" data-name="Grupo 10" transform="translate(35.711 6.169)">
    <g id="Grupo_9" data-name="Grupo 9" transform="translate(0 0)">
      <path id="Caminho_7" data-name="Caminho 7" d="M409.424,143.59v1.52a1.52,1.52,0,0,1-3.039,0v-.76a3.042,3.042,0,0,0-3.039-3.039h-2.279v1.52h2.279a1.521,1.521,0,0,1,1.52,1.52v.76a3.039,3.039,0,0,0,6.078,0v-1.52Z" transform="translate(-401.066 -141.311)"/>
    </g>
  </g>
  <g id="Grupo_12" data-name="Grupo 12" transform="translate(0 0.09)">
    <g id="Grupo_11" data-name="Grupo 11" transform="translate(0 0)">
      <path id="Caminho_8" data-name="Caminho 8" d="M2.986,73.037H.76A.76.76,0,0,0,0,73.8c0,1.434.218,3.2,1.956,4.13l.76.357.647-1.377-.723-.338a2.218,2.218,0,0,1-1.089-2.013H3a2.17,2.17,0,0,1,1.75.78l1.145-1A3.813,3.813,0,0,0,2.986,73.037Z" transform="translate(0 -73.036)"/>
    </g>
  </g>
  <g id="Grupo_14" data-name="Grupo 14" transform="translate(0 0)">
    <g id="Grupo_13" data-name="Grupo 13">
      <path id="Caminho_9" data-name="Caminho 9" d="M21.033,91.873a2.3,2.3,0,0,0-2.282,1.813l-1.9,9.584H15.2V92.412a2.284,2.284,0,0,0-.512-1.435L9.313,84.36a2.272,2.272,0,0,0-1.768-.843H3.163A1.652,1.652,0,0,1,1.52,81.874a1.674,1.674,0,0,1,.217-.824l3.458-6.235A2.819,2.819,0,0,1,8.118,73.6l2.279.76a.762.762,0,0,0,.716-.128,2.943,2.943,0,0,1,2.959-.423l1.332.513c-.635,1.264-1.3,1.528-1.778,1.6H12.157v1.52h1.52c.031,0,.062,0,.094,0,1.484-.183,2.583-1.25,3.358-3.261a.759.759,0,0,0-.436-.982l-2.06-.792a4.452,4.452,0,0,0-4.125.4L8.53,72.139A4.369,4.369,0,0,0,3.895,74.03L.409,80.31a3.167,3.167,0,0,0,2.751,4.725H7.543a.758.758,0,0,1,.589.282l5.373,6.619a.755.755,0,0,1,.171.476V104.03a.76.76,0,0,0,.76.76h3.039a.759.759,0,0,0,.745-.612l2.019-10.184a.758.758,0,0,1,.777-.6H37.99v-1.52Z" transform="translate(0 -72.028)"/>
    </g>
  </g>
</svg>
