<svg id="searcher" xmlns="http://www.w3.org/2000/svg" width="47.826" height="47.318" viewBox="0 0 47.826 47.318">
  <g id="Grupo_2" data-name="Grupo 2" transform="translate(4.701 4.711)">
    <g id="Grupo_1" data-name="Grupo 1">
      <path id="Caminho_3" data-name="Caminho 3" d="M60.07,46.8A13.347,13.347,0,1,0,73.406,60.147,13.362,13.362,0,0,0,60.07,46.8ZM68.7,68.129V64.857h-1.57v4.69a11.978,11.978,0,0,1-2.355,1.389V57.791H63.2V71.48a12,12,0,0,1-2.355.4V59.362h-1.57V71.883a11.412,11.412,0,0,1-2.355-.4V54.651h-1.57V70.937a11.5,11.5,0,0,1-2.355-1.389V62.5h-1.57v5.627a11.756,11.756,0,1,1,17.272,0Z" transform="translate(-46.733 -46.8)"/>
    </g>
  </g>
  <g id="Grupo_4" data-name="Grupo 4" transform="translate(0)">
    <g id="Grupo_3" data-name="Grupo 3">
      <path id="Caminho_4" data-name="Caminho 4" d="M46.508,39.5,35.77,28.871l-1.089,1.077L32.306,27.6a17.351,17.351,0,0,0,3.2-10.035,17.736,17.736,0,0,0-35.47,0A17.751,17.751,0,0,0,27.952,31.926l2.365,2.34-1.089,1.077L39.966,45.984a4.68,4.68,0,0,0,6.542,0A4.562,4.562,0,0,0,46.508,39.5Zm-28.74-5.9A16.134,16.134,0,0,1,1.577,17.564a16.192,16.192,0,0,1,32.382,0A16.128,16.128,0,0,1,17.768,33.6ZM29.179,31a17.389,17.389,0,0,0,2.177-2.164l2.227,2.2L31.406,33.2Zm2.227,4.357,4.364-4.317,9.105,9.017-4.364,4.317ZM45.42,44.908a3.186,3.186,0,0,1-3.731.46l4.206-4.161A3.05,3.05,0,0,1,45.42,44.908Z" transform="translate(-0.033)"/>
    </g>
  </g>
</svg>
